#!OML:ASF F:\VICON\USERDATA\INSTALL\rory3\rory3.ASF
:FULLY-SPECIFIED
:DEGREES
298
root -10.0671 17.831 7.49584 -76.1465 -82.9936 74.9654
lowerback 9.75709 -0.579355 -7.27881
upperback 1.27911 -1.59236 -0.0327127
thorax -3.94291 -0.703133 4.27131
lowerneck -20.454 -6.89482 -12.7191
upperneck 26.4242 -9.02544 10.0419
head 13.3912 -4.09742 4.43745
rclavicle -9.19379e-015 1.47101e-014
rhumerus -38.2741 -20.7346 -76.5248
rradius 26.8754
rwrist 6.78946
rhand -16.593 7.69884
rfingers 7.12502
rthumb 9.62807 -22.0611
lclavicle -9.19379e-015 1.47101e-014
lhumerus -23.1596 -1.45242 84.234
lradius 39.3274
lwrist -1.72734
lhand -18.8142 25.7135
lfingers 7.12502
lthumb 7.48445 55.5611
rfemur -26.2715 -5.63863 17.1857
rtibia 26.2578
rfoot -0.661423 -6.93033
rtoes 8.81291
lfemur 17.7165 0.805065 -29.5198
ltibia 2.22639e-014
lfoot -4.05063 -1.60512
ltoes -20.1028
299
root -10.2002 17.8262 7.49538 -75.3806 -82.902 74.2581
lowerback 9.64066 -0.632585 -7.37992
upperback 1.33873 -1.66309 -0.0497099
thorax -3.80404 -0.744382 4.31477
lowerneck -20.5555 -6.93233 -12.6783
upperneck 26.2599 -9.07337 10.097
head 13.3523 -4.09995 4.43739
rclavicle 6.80837e-015 1.07344e-014
rhumerus -38.1445 -20.7163 -76.6384
rradius 26.6704
rwrist 6.68728
rhand -16.5281 8.04137
rfingers 7.12502
rthumb 9.69062 -21.7157
lclavicle 6.80837e-015 1.07344e-014
lhumerus -22.9719 -1.41963 84.2636
lradius 39.4228
lwrist -1.7808
lhand -19.0053 25.8548
lfingers 7.12502
lthumb 7.30003 55.7088
rfemur -26.308 -5.28257 17.0405
rtibia 24.9021
rfoot 0.094947 -6.33184
rtoes 5.44804
lfemur 18.0922 0.537215 -29.6449
ltibia 2.22639e-014
lfoot -3.91396 -1.42809
ltoes -21.6178
300
root -10.333 17.8138 7.49635 -74.7109 -82.7311 73.7556
lowerback 9.45661 -0.62596 -7.41674
upperback 1.33365 -1.64819 -0.176351
thorax -3.71153 -0.740853 4.19557
lowerneck -20.4059 -7.01047 -12.6388
upperneck 25.9329 -9.23219 10.2582
head 13.217 -4.14551 4.45761
rclavicle -1.43125e-014 -9.14409e-015
rhumerus -38.1078 -21.0781 -76.6455
rradius 26.3263
rwrist 6.85271
rhand -16.5594 8.28972
rfingers 7.12502
rthumb 9.66048 -21.4688
lclavicle -1.43125e-014 -9.14409e-015
lhumerus -22.8322 -2.04105 84.3067
lradius 39.5093
lwrist -1.51022
lhand -19.0791 25.9811
lfingers 7.12502
lthumb 7.22877 55.8376
rfemur -26.5358 -5.04401 16.844
rtibia 23.8988
rfoot -0.0368215 -5.82622
rtoes 2.81248
lfemur 18.3404 0.253697 -29.8546
ltibia -4.77083e-014
lfoot -3.76791 -1.3065
ltoes -23.0845
301
root -10.4679 17.8088 7.4945 -74.4002 -82.7 73.5335
lowerback 9.32978 -0.623244 -7.39734
upperback 1.32545 -1.63174 -0.188524
thorax -3.65236 -0.734812 4.16658
lowerneck -20.3329 -7.02228 -12.6763
upperneck 25.8239 -9.20711 10.1892
head 13.1516 -4.14681 4.43897
rclavicle 4.72114e-015 5.56597e-015
rhumerus -38.0154 -21.641 -76.383
rradius 25.779
rwrist 7.46471
rhand -16.7914 8.56281
rfingers 7.12502
rthumb 9.43665 -21.2059
lclavicle 4.72114e-015 5.56597e-015
lhumerus -22.7575 -2.41161 84.3713
lradius 39.5718
lwrist -1.41248
lhand -18.7598 25.7154
lfingers 7.12502
lthumb 7.53702 55.5611
rfemur -26.3831 -4.49598 16.6743
rtibia 23.129
rfoot -1.50195 -5.68207
rtoes 2.33436
lfemur 18.6998 0.0384112 -29.874
ltibia -3.18055e-015
lfoot -3.68608 -1.37782
ltoes -23.5203
302
root -10.6038 17.8087 7.49044 -74.0921 -82.7757 73.276
lowerback 9.23849 -0.677474 -7.366
upperback 1.32851 -1.68714 -0.0927305
thorax -3.58907 -0.76413 4.25325
lowerneck -20.5175 -6.97741 -12.8027
upperneck 25.9641 -9.04415 10.0663
head 13.2237 -4.09745 4.44385
rclavicle -4.47266e-016 -2.46493e-014
rhumerus -37.8654 -21.647 -76.2753
rradius 25.4608
rwrist 7.60389
rhand -17.0083 8.80079
rfingers 7.12502
rthumb 9.22729 -20.9773
lclavicle -4.47266e-016 -2.46493e-014
lhumerus -22.7313 -2.45007 84.4352
lradius 39.642
lwrist -1.4225
lhand -18.903 25.5402
lfingers 7.12502
lthumb 7.39875 55.3908
rfemur -26.2489 -4.34147 16.7814
rtibia 22.567
rfoot -3.39468 -5.24959
rtoes -2.48859
lfemur 19.1024 -0.152214 -29.7621
ltibia 0
lfoot -3.53858 -1.48182
ltoes -24.3701
